<svg xmlns="http://www.w3.org/2000/svg" viewBox="0 0 469.69 432.12"><defs><style>.cls-1{fill:#614f45;}.cls-2{fill:#f296b0;}.cls-3{fill:#ceab8e;}</style></defs><title>Pug</title><g id="Слой_2" data-name="Слой 2"><path class="cls-1" d="M167.67,281.33,85.06,315.71a30.84,30.84,0,0,0-18,36.21l14.07,54.25A4.36,4.36,0,0,0,89,407.39Z" transform="translate(-66.06 -268.74)"/><path class="cls-1" d="M323,280,392,296.14a28.71,28.71,0,0,1,22,31.4L407,384.77a4.38,4.38,0,0,1-7.92,2Z" transform="translate(-66.06 -268.74)"/><path class="cls-2" d="M144.67,524.33l3,18a264.33,264.33,0,0,0,36.66,12.34c13.82,3.54,48.12,12,89.67,7.33,52.49-6,90.76-30,110-44.33l-10-7.87a178.67,178.67,0,0,1-26.3,17.2c-30.41,16.25-57.61,19.36-74.65,21.15-16.58,1.74-58.87,5.67-106.32-13.39A201.91,201.91,0,0,1,144.67,524.33Z" transform="translate(-66.06 -268.74)"/><path class="cls-2" d="M438.33,490.67c-3.06-8.48-9.56-13.85-16-13.67-6.82.19-11.05,6.56-11.33,7-5.93,9.23-.65,25.76,13,41.33,21.71-1.57,37.95-10.18,40.67-22,.94-4.09.85-11.13-3.67-15C456,484,446.6,484.62,438.33,490.67Z" transform="translate(-66.06 -268.74)"/><path class="cls-2" d="M489,383.67C480,371.12,466.89,365,456,368c-8.52,2.33-14.22,9.81-16.33,15.67-6.48,17.93,11.83,45.11,45,68,35.61-18.06,55.26-43.47,50.33-61.34-2.32-8.42-11.51-20.22-24-20.33C498.06,369.89,489.81,382.4,489,383.67Z" transform="translate(-66.06 -268.74)"/><path class="cls-1" d="M453.67,623.67a56,56,0,0,1,0,11,59,59,0,0,1-10.67,28,66.66,66.66,0,0,0,21-.34c7.65-1.35,24.54-4.35,34.33-18.66,1.68-2.45,9.23-13.49,6-26.67-.59-2.43-2.81-11.5-11.33-16.33-7.8-4.43-19.18-4.34-26,2.33-.74.73-7,7-5.33,15.33.13.65,1.72,8,8.33,10.67.67.28,7.72,3.16,11.33-1,2.45-2.82,2.37-7.8-.66-11.67a8.82,8.82,0,0,1,6.66,2.34c2.92,3,2.31,7.64,1,10.33-2.63,5.4-9.75,6.22-11.63,6.43C464.37,636.85,454.91,625.24,453.67,623.67Z" transform="translate(-66.06 -268.74)"/><path class="cls-3" d="M414.33,545.33a148.51,148.51,0,0,0-26.66-24.66A226.63,226.63,0,0,1,311,560c-76.12,21.91-141.21-3.75-162.67-13.33A569.59,569.59,0,0,1,163.67,610c5,27.39,4.21,35.33,2.66,42-3.06,13.22-8.78,19.49-5.33,24.67,4.68,7,21.79,5.34,33.25-.69,12.26-6.45,17.61-17.64,19.4-21.94,4.28,1.74,8.82,3.47,13.6,5.14,2.12.74,7.94,2.75,15.08,4.82a300.6,300.6,0,0,0,31.57,7.26,63.91,63.91,0,0,0,5.77-16.93,66,66,0,0,0-3-34.66,61.82,61.82,0,0,1,1.43,54.4c-.94,10.41,1.88,20.31,8.37,24.42,9.9,6.28,30.25.26,40.53-20.49a83,83,0,0,0,9.67-33.33,73,73,0,0,1-5,34.33A76.23,76.23,0,0,0,364,674a70.71,70.71,0,0,1,19.53-72.14A72.77,72.77,0,0,0,370.12,671c1.54-.78,2.95-1.57,4.21-2.31-16.19,17.72-18.14,25.27-16,28.66,5.08,8,38.09.68,60.67-18,5.59-4.62,21.28-18,27.33-40.66C457.55,596.57,425.84,559,414.33,545.33Z" transform="translate(-66.06 -268.74)"/><path class="cls-1" d="M355,403c-2.05-14.45-18.28-22.94-31-18.67a23,23,0,0,0-15.25,20.3c-.63,12.76,10.41,25.65,24.62,24.79C346.87,428.61,356.81,415.78,355,403Zm-27.6,16.07a4.38,4.38,0,0,1-7.38-4.71c1.38-2.06,4.56-2.18,6.38-.62A4.3,4.3,0,0,1,327.4,419.07ZM341.83,404a9,9,0,0,1-10.89-14.24,9.05,9.05,0,0,1,13,2A9,9,0,0,1,341.83,404Z" transform="translate(-66.06 -268.74)"/><path class="cls-1" d="M189.9,412.15c-2-14.45-18.28-22.93-31-18.66a23,23,0,0,0-15.25,20.29c-.63,12.77,10.41,25.66,24.62,24.8C181.77,437.76,191.71,424.93,189.9,412.15Zm-27.6,16.07a4.38,4.38,0,0,1-7.38-4.71c1.38-2.06,4.56-2.18,6.38-.62A4.3,4.3,0,0,1,162.3,428.22Zm14.43-15.07a9,9,0,0,1-10.89-14.24,9,9,0,0,1,13,2A8.94,8.94,0,0,1,176.73,413.15Z" transform="translate(-66.06 -268.74)"/></g><g id="Слой_3" data-name="Слой 3"><path class="cls-3" d="M398.33,394.67,317,280a217.72,217.72,0,0,0-144,2L91.67,417.33c-2.9,9.71-6.09,25.89-1.34,44,8.55,32.57,36.92,49,54.67,59.34,39.44,22.88,77.7,23.42,101.38,23.47,24.23,0,75.4.14,119.29-33.47,10.87-8.33,25.25-19.62,34-40C414.15,436.92,402.14,404,398.33,394.67ZM296.71,327.41c-.27.83-23.08-8.59-55.31-6.5-25.84,1.67-43.45,9.81-43.79,9s17.64-10.68,41.5-12.86C271.1,314.13,297,326.51,296.71,327.41ZM235.46,303.7c32-2.92,57.89,9.46,57.6,10.35s-23.08-8.58-55.31-6.5c-25.84,1.67-43.45,9.81-43.79,9S211.6,305.88,235.46,303.7ZM148.17,462.17c-7.64,0-13.84-2.57-13.84-5.75s6.2-5.75,13.84-5.75S162,453.24,162,456.42,155.81,462.17,148.17,462.17Zm18.7-19.8a26.87,26.87,0,1,1,26.87-26.87A26.87,26.87,0,0,1,166.87,442.37ZM250.67,510a14.11,14.11,0,0,1-14-8,25,25,0,0,0,25,0C261.48,502.4,258.09,509.21,250.67,510Zm55-30.67c-.17,2.25-1.1,14.89-10.67,21.34-8.93,6-21.27,3.83-29.33-1.34-10.36-6.63-12.86-17.66-13.34-20v-25.7c5.35-3.75,18.1-13.49,16-20-3-9.16-34.94-9.72-38-1.34-2.31,6.34,12.14,17.2,18,21.29q-.66,12.86-1.31,25.71A29.67,29.67,0,0,1,237,494c-2,1.54-11.78,8.73-24,5.33-10.43-2.89-16.81-11.87-18.67-20-.73-3.2-1.24-8.37,1.34-16,4.45-13.16,20.64-41.16,49.88-43.17C280.54,417.76,307.5,454.39,305.67,479.33Zm-.82-72.89a26.87,26.87,0,1,1,26.87,26.87A26.87,26.87,0,0,1,304.85,406.44Zm40.7,47.43c-7.64,0-13.83-2.57-13.83-5.75s6.19-5.75,13.83-5.75,13.84,2.57,13.84,5.75S353.19,453.87,345.55,453.87Z" transform="translate(-66.06 -268.74)"/></g></svg>